<?xml version="1.0" encoding="UTF-8" standalone="no"?>
<!DOCTYPE svg PUBLIC "-//W3C//DTD SVG 1.1//EN"
 "http://www.w3.org/Graphics/SVG/1.1/DTD/svg11.dtd">
<!-- Generated by graphviz version 2.40.1 (20161225.0304)
 -->
<!-- Title: controllers_diagram Pages: 1 -->
<svg width="471pt" height="353pt"
 viewBox="0.00 0.00 471.38 353.00" xmlns="http://www.w3.org/2000/svg" xmlns:xlink="http://www.w3.org/1999/xlink">
<g id="graph0" class="graph" transform="scale(1 1) rotate(0) translate(4 349)">
<title>controllers_diagram</title>
<polygon fill="transparent" stroke="transparent" points="-4,4 -4,-349 467.3755,-349 467.3755,4 -4,4"/>
<!-- _diagram_info -->
<g id="node1" class="node">
<title>_diagram_info</title>
<text text-anchor="start" x="264" y="-330.6" font-family="Times,serif" font-size="13.00" fill="#000000">Controllers diagram</text>
<text text-anchor="start" x="264" y="-317.6" font-family="Times,serif" font-size="13.00" fill="#000000">Date: Feb 23 2019 &#45; 16:14</text>
<text text-anchor="start" x="264" y="-304.6" font-family="Times,serif" font-size="13.00" fill="#000000">Migration version: 20190223164903</text>
<text text-anchor="start" x="264" y="-291.6" font-family="Times,serif" font-size="13.00" fill="#000000">Generated by RailRoady 1.5.3</text>
<text text-anchor="start" x="264" y="-278.6" font-family="Times,serif" font-size="13.00" fill="#000000">http://railroady.prestonlee.com</text>
</g>
<!-- ApplicationController -->
<g id="node2" class="node">
<title>ApplicationController</title>
<path fill="none" stroke="#000000" d="M12,-240.5C12,-240.5 127.6416,-240.5 127.6416,-240.5 133.6416,-240.5 139.6416,-246.5 139.6416,-252.5 139.6416,-252.5 139.6416,-320.5 139.6416,-320.5 139.6416,-326.5 133.6416,-332.5 127.6416,-332.5 127.6416,-332.5 12,-332.5 12,-332.5 6,-332.5 0,-326.5 0,-320.5 0,-320.5 0,-252.5 0,-252.5 0,-246.5 6,-240.5 12,-240.5"/>
<text text-anchor="middle" x="69.8208" y="-317.3" font-family="Times,serif" font-size="14.00" fill="#000000">ApplicationController</text>
<polyline fill="none" stroke="#000000" points="0,-310.5 139.6416,-310.5 "/>
<polyline fill="none" stroke="#000000" points="0,-286.5 139.6416,-286.5 "/>
<polyline fill="none" stroke="#000000" points="0,-262.5 139.6416,-262.5 "/>
<text text-anchor="start" x="8" y="-247.3" font-family="Times,serif" font-size="14.00" fill="#000000">_layout</text>
</g>
<!-- UsersController -->
<g id="node3" class="node">
<title>UsersController</title>
<path fill="none" stroke="#000000" d="M44,-.5C44,-.5 125.4277,-.5 125.4277,-.5 131.4277,-.5 137.4277,-6.5 137.4277,-12.5 137.4277,-12.5 137.4277,-190.5 137.4277,-190.5 137.4277,-196.5 131.4277,-202.5 125.4277,-202.5 125.4277,-202.5 44,-202.5 44,-202.5 38,-202.5 32,-196.5 32,-190.5 32,-190.5 32,-12.5 32,-12.5 32,-6.5 38,-.5 44,-.5"/>
<text text-anchor="middle" x="84.7139" y="-187.3" font-family="Times,serif" font-size="14.00" fill="#000000">UsersController</text>
<polyline fill="none" stroke="#000000" points="32,-180.5 137.4277,-180.5 "/>
<text text-anchor="start" x="40" y="-165.3" font-family="Times,serif" font-size="14.00" fill="#000000">create</text>
<text text-anchor="start" x="40" y="-151.3" font-family="Times,serif" font-size="14.00" fill="#000000">destroy</text>
<text text-anchor="start" x="40" y="-137.3" font-family="Times,serif" font-size="14.00" fill="#000000">edit</text>
<text text-anchor="start" x="40" y="-123.3" font-family="Times,serif" font-size="14.00" fill="#000000">index</text>
<text text-anchor="start" x="40" y="-109.3" font-family="Times,serif" font-size="14.00" fill="#000000">new</text>
<text text-anchor="start" x="40" y="-95.3" font-family="Times,serif" font-size="14.00" fill="#000000">show</text>
<text text-anchor="start" x="40" y="-81.3" font-family="Times,serif" font-size="14.00" fill="#000000">update</text>
<polyline fill="none" stroke="#000000" points="32,-74.5 137.4277,-74.5 "/>
<polyline fill="none" stroke="#000000" points="32,-50.5 137.4277,-50.5 "/>
<text text-anchor="start" x="40" y="-35.3" font-family="Times,serif" font-size="14.00" fill="#000000">_layout</text>
<text text-anchor="start" x="40" y="-21.3" font-family="Times,serif" font-size="14.00" fill="#000000">set_user</text>
<text text-anchor="start" x="40" y="-7.3" font-family="Times,serif" font-size="14.00" fill="#000000">user_params</text>
</g>
<!-- BooksController -->
<g id="node4" class="node">
<title>BooksController</title>
<path fill="none" stroke="#000000" d="M188,-32.5C188,-32.5 273.3311,-32.5 273.3311,-32.5 279.3311,-32.5 285.3311,-38.5 285.3311,-44.5 285.3311,-44.5 285.3311,-222.5 285.3311,-222.5 285.3311,-228.5 279.3311,-234.5 273.3311,-234.5 273.3311,-234.5 188,-234.5 188,-234.5 182,-234.5 176,-228.5 176,-222.5 176,-222.5 176,-44.5 176,-44.5 176,-38.5 182,-32.5 188,-32.5"/>
<text text-anchor="middle" x="230.6655" y="-219.3" font-family="Times,serif" font-size="14.00" fill="#000000">BooksController</text>
<polyline fill="none" stroke="#000000" points="176,-212.5 285.3311,-212.5 "/>
<text text-anchor="start" x="184" y="-197.3" font-family="Times,serif" font-size="14.00" fill="#000000">create</text>
<text text-anchor="start" x="184" y="-183.3" font-family="Times,serif" font-size="14.00" fill="#000000">destroy</text>
<text text-anchor="start" x="184" y="-169.3" font-family="Times,serif" font-size="14.00" fill="#000000">edit</text>
<text text-anchor="start" x="184" y="-155.3" font-family="Times,serif" font-size="14.00" fill="#000000">index</text>
<text text-anchor="start" x="184" y="-141.3" font-family="Times,serif" font-size="14.00" fill="#000000">new</text>
<text text-anchor="start" x="184" y="-127.3" font-family="Times,serif" font-size="14.00" fill="#000000">show</text>
<text text-anchor="start" x="184" y="-113.3" font-family="Times,serif" font-size="14.00" fill="#000000">update</text>
<polyline fill="none" stroke="#000000" points="176,-106.5 285.3311,-106.5 "/>
<polyline fill="none" stroke="#000000" points="176,-82.5 285.3311,-82.5 "/>
<text text-anchor="start" x="184" y="-67.3" font-family="Times,serif" font-size="14.00" fill="#000000">_layout</text>
<text text-anchor="start" x="184" y="-53.3" font-family="Times,serif" font-size="14.00" fill="#000000">book_params</text>
<text text-anchor="start" x="184" y="-39.3" font-family="Times,serif" font-size="14.00" fill="#000000">set_book</text>
</g>
</g>
</svg>
