<?xml version="1.0" encoding="UTF-8" standalone="no"?>
<!DOCTYPE svg PUBLIC "-//W3C//DTD SVG 1.1//EN"
 "http://www.w3.org/Graphics/SVG/1.1/DTD/svg11.dtd">
<!-- Generated by graphviz version 2.40.1 (20161225.0304)
 -->
<!-- Title: models_diagram Pages: 1 -->
<svg width="661pt" height="153pt"
 viewBox="0.00 0.00 660.88 153.00" xmlns="http://www.w3.org/2000/svg" xmlns:xlink="http://www.w3.org/1999/xlink">
<g id="graph0" class="graph" transform="scale(1 1) rotate(0) translate(4 149)">
<title>models_diagram</title>
<polygon fill="transparent" stroke="transparent" points="-4,4 -4,-149 656.8834,-149 656.8834,4 -4,4"/>
<!-- _diagram_info -->
<g id="node1" class="node">
<title>_diagram_info</title>
<text text-anchor="start" x="8" y="-130.6" font-family="Times,serif" font-size="13.00" fill="#000000">Models diagram</text>
<text text-anchor="start" x="8" y="-117.6" font-family="Times,serif" font-size="13.00" fill="#000000">Date: Feb 23 2019 &#45; 16:14</text>
<text text-anchor="start" x="8" y="-104.6" font-family="Times,serif" font-size="13.00" fill="#000000">Migration version: 20190223164903</text>
<text text-anchor="start" x="8" y="-91.6" font-family="Times,serif" font-size="13.00" fill="#000000">Generated by RailRoady 1.5.3</text>
<text text-anchor="start" x="8" y="-78.6" font-family="Times,serif" font-size="13.00" fill="#000000">http://railroady.prestonlee.com</text>
</g>
<!-- PaperBook -->
<g id="node2" class="node">
<title>PaperBook</title>
<ellipse fill="none" stroke="#000000" cx="274.6877" cy="-108.5" rx="49.3119" ry="18"/>
<text text-anchor="middle" x="274.6877" y="-104.3" font-family="Times,serif" font-size="14.00" fill="#000000">PaperBook</text>
</g>
<!-- Book -->
<g id="node3" class="node">
<title>Book</title>
<ellipse fill="none" stroke="#000000" cx="368.6877" cy="-18" rx="29.0429" ry="18"/>
<text text-anchor="middle" x="368.6877" y="-13.8" font-family="Times,serif" font-size="14.00" fill="#000000">Book</text>
</g>
<!-- ApplicationRecord -->
<g id="node4" class="node">
<title>ApplicationRecord</title>
<ellipse fill="none" stroke="#000000" cx="490.6877" cy="-108.5" rx="77.2916" ry="18"/>
<text text-anchor="middle" x="490.6877" y="-104.3" font-family="Times,serif" font-size="14.00" fill="#000000">ApplicationRecord</text>
</g>
<!-- Ebook -->
<g id="node5" class="node">
<title>Ebook</title>
<ellipse fill="none" stroke="#000000" cx="619.6877" cy="-108.5" rx="33.3925" ry="18"/>
<text text-anchor="middle" x="619.6877" y="-104.3" font-family="Times,serif" font-size="14.00" fill="#000000">Ebook</text>
</g>
<!-- User -->
<g id="node6" class="node">
<title>User</title>
<ellipse fill="none" stroke="#000000" cx="368.6877" cy="-108.5" rx="27" ry="18"/>
<text text-anchor="middle" x="368.6877" y="-104.3" font-family="Times,serif" font-size="14.00" fill="#000000">User</text>
</g>
<!-- User&#45;&gt;Book -->
<g id="edge1" class="edge">
<title>User&#45;&gt;Book</title>
<path fill="none" stroke="#50c14e" d="M368.6877,-81.9687C368.6877,-70.8402 368.6877,-57.878 368.6877,-46.5429"/>
<ellipse fill="none" stroke="#50c14e" cx="368.6878" cy="-86.186" rx="4" ry="4"/>
<polygon fill="#50c14e" stroke="#50c14e" points="368.6878,-46.2868 373.1877,-36.2867 368.6878,-41.2868 368.6877,-36.2868 368.6877,-36.2868 368.6877,-36.2868 368.6878,-41.2868 364.1877,-36.2868 368.6878,-46.2868 368.6878,-46.2868"/>
</g>
</g>
</svg>
