<?xml version="1.0" encoding="UTF-8" standalone="no"?>
<!DOCTYPE svg PUBLIC "-//W3C//DTD SVG 1.1//EN"
 "http://www.w3.org/Graphics/SVG/1.1/DTD/svg11.dtd">
<!-- Generated by graphviz version 2.40.1 (20161225.0304)
 -->
<!-- Title: models_diagram Pages: 1 -->
<svg width="841pt" height="274pt"
 viewBox="0.00 0.00 841.19 274.00" xmlns="http://www.w3.org/2000/svg" xmlns:xlink="http://www.w3.org/1999/xlink">
<g id="graph0" class="graph" transform="scale(1 1) rotate(0) translate(4 270)">
<title>models_diagram</title>
<polygon fill="transparent" stroke="transparent" points="-4,4 -4,-270 837.1931,-270 837.1931,4 -4,4"/>
<!-- _diagram_info -->
<g id="node1" class="node">
<title>_diagram_info</title>
<text text-anchor="start" x="8" y="-230.6" font-family="Times,serif" font-size="13.00" fill="#000000">Models diagram</text>
<text text-anchor="start" x="8" y="-217.6" font-family="Times,serif" font-size="13.00" fill="#000000">Date: Feb 23 2019 &#45; 16:14</text>
<text text-anchor="start" x="8" y="-204.6" font-family="Times,serif" font-size="13.00" fill="#000000">Migration version: 20190223164903</text>
<text text-anchor="start" x="8" y="-191.6" font-family="Times,serif" font-size="13.00" fill="#000000">Generated by RailRoady 1.5.3</text>
<text text-anchor="start" x="8" y="-178.6" font-family="Times,serif" font-size="13.00" fill="#000000">http://railroady.prestonlee.com</text>
</g>
<!-- PaperBook -->
<g id="node2" class="node">
<title>PaperBook</title>
<path fill="none" stroke="#000000" d="M237.1824,-151.5C237.1824,-151.5 346.1931,-151.5 346.1931,-151.5 352.1931,-151.5 358.1931,-157.5 358.1931,-163.5 358.1931,-163.5 358.1931,-253.5 358.1931,-253.5 358.1931,-259.5 352.1931,-265.5 346.1931,-265.5 346.1931,-265.5 237.1824,-265.5 237.1824,-265.5 231.1824,-265.5 225.1824,-259.5 225.1824,-253.5 225.1824,-253.5 225.1824,-163.5 225.1824,-163.5 225.1824,-157.5 231.1824,-151.5 237.1824,-151.5"/>
<text text-anchor="middle" x="291.6877" y="-250.3" font-family="Times,serif" font-size="14.00" fill="#000000">PaperBook</text>
<polyline fill="none" stroke="#000000" points="225.1824,-243.5 358.1931,-243.5 "/>
<text text-anchor="start" x="233.1824" y="-228.3" font-family="Times,serif" font-size="14.00" fill="#000000">id :integer</text>
<text text-anchor="start" x="233.1824" y="-214.3" font-family="Times,serif" font-size="14.00" fill="#000000">name :varchar</text>
<text text-anchor="start" x="233.1824" y="-200.3" font-family="Times,serif" font-size="14.00" fill="#000000">type :varchar</text>
<text text-anchor="start" x="233.1824" y="-186.3" font-family="Times,serif" font-size="14.00" fill="#000000">user_id :integer</text>
<text text-anchor="start" x="233.1824" y="-172.3" font-family="Times,serif" font-size="14.00" fill="#000000">created_at :datetime</text>
<text text-anchor="start" x="233.1824" y="-158.3" font-family="Times,serif" font-size="14.00" fill="#000000">updated_at :datetime</text>
</g>
<!-- Book -->
<g id="node3" class="node">
<title>Book</title>
<path fill="none" stroke="#000000" d="M388.1824,-.5C388.1824,-.5 497.1931,-.5 497.1931,-.5 503.1931,-.5 509.1931,-6.5 509.1931,-12.5 509.1931,-12.5 509.1931,-102.5 509.1931,-102.5 509.1931,-108.5 503.1931,-114.5 497.1931,-114.5 497.1931,-114.5 388.1824,-114.5 388.1824,-114.5 382.1824,-114.5 376.1824,-108.5 376.1824,-102.5 376.1824,-102.5 376.1824,-12.5 376.1824,-12.5 376.1824,-6.5 382.1824,-.5 388.1824,-.5"/>
<text text-anchor="middle" x="442.6877" y="-99.3" font-family="Times,serif" font-size="14.00" fill="#000000">Book</text>
<polyline fill="none" stroke="#000000" points="376.1824,-92.5 509.1931,-92.5 "/>
<text text-anchor="start" x="384.1824" y="-77.3" font-family="Times,serif" font-size="14.00" fill="#000000">id :integer</text>
<text text-anchor="start" x="384.1824" y="-63.3" font-family="Times,serif" font-size="14.00" fill="#000000">name :varchar</text>
<text text-anchor="start" x="384.1824" y="-49.3" font-family="Times,serif" font-size="14.00" fill="#000000">type :varchar</text>
<text text-anchor="start" x="384.1824" y="-35.3" font-family="Times,serif" font-size="14.00" fill="#000000">user_id :integer</text>
<text text-anchor="start" x="384.1824" y="-21.3" font-family="Times,serif" font-size="14.00" fill="#000000">created_at :datetime</text>
<text text-anchor="start" x="384.1824" y="-7.3" font-family="Times,serif" font-size="14.00" fill="#000000">updated_at :datetime</text>
</g>
<!-- ApplicationRecord -->
<g id="node4" class="node">
<title>ApplicationRecord</title>
<ellipse fill="none" stroke="#000000" cx="604.6877" cy="-208.5" rx="77.2916" ry="18"/>
<text text-anchor="middle" x="604.6877" y="-204.3" font-family="Times,serif" font-size="14.00" fill="#000000">ApplicationRecord</text>
</g>
<!-- Ebook -->
<g id="node5" class="node">
<title>Ebook</title>
<path fill="none" stroke="#000000" d="M712.1824,-151.5C712.1824,-151.5 821.1931,-151.5 821.1931,-151.5 827.1931,-151.5 833.1931,-157.5 833.1931,-163.5 833.1931,-163.5 833.1931,-253.5 833.1931,-253.5 833.1931,-259.5 827.1931,-265.5 821.1931,-265.5 821.1931,-265.5 712.1824,-265.5 712.1824,-265.5 706.1824,-265.5 700.1824,-259.5 700.1824,-253.5 700.1824,-253.5 700.1824,-163.5 700.1824,-163.5 700.1824,-157.5 706.1824,-151.5 712.1824,-151.5"/>
<text text-anchor="middle" x="766.6877" y="-250.3" font-family="Times,serif" font-size="14.00" fill="#000000">Ebook</text>
<polyline fill="none" stroke="#000000" points="700.1824,-243.5 833.1931,-243.5 "/>
<text text-anchor="start" x="708.1824" y="-228.3" font-family="Times,serif" font-size="14.00" fill="#000000">id :integer</text>
<text text-anchor="start" x="708.1824" y="-214.3" font-family="Times,serif" font-size="14.00" fill="#000000">name :varchar</text>
<text text-anchor="start" x="708.1824" y="-200.3" font-family="Times,serif" font-size="14.00" fill="#000000">type :varchar</text>
<text text-anchor="start" x="708.1824" y="-186.3" font-family="Times,serif" font-size="14.00" fill="#000000">user_id :integer</text>
<text text-anchor="start" x="708.1824" y="-172.3" font-family="Times,serif" font-size="14.00" fill="#000000">created_at :datetime</text>
<text text-anchor="start" x="708.1824" y="-158.3" font-family="Times,serif" font-size="14.00" fill="#000000">updated_at :datetime</text>
</g>
<!-- User -->
<g id="node6" class="node">
<title>User</title>
<path fill="none" stroke="#000000" d="M388.1824,-151.5C388.1824,-151.5 497.1931,-151.5 497.1931,-151.5 503.1931,-151.5 509.1931,-157.5 509.1931,-163.5 509.1931,-163.5 509.1931,-253.5 509.1931,-253.5 509.1931,-259.5 503.1931,-265.5 497.1931,-265.5 497.1931,-265.5 388.1824,-265.5 388.1824,-265.5 382.1824,-265.5 376.1824,-259.5 376.1824,-253.5 376.1824,-253.5 376.1824,-163.5 376.1824,-163.5 376.1824,-157.5 382.1824,-151.5 388.1824,-151.5"/>
<text text-anchor="middle" x="442.6877" y="-250.3" font-family="Times,serif" font-size="14.00" fill="#000000">User</text>
<polyline fill="none" stroke="#000000" points="376.1824,-243.5 509.1931,-243.5 "/>
<text text-anchor="start" x="384.1824" y="-228.3" font-family="Times,serif" font-size="14.00" fill="#000000">id :integer</text>
<text text-anchor="start" x="384.1824" y="-214.3" font-family="Times,serif" font-size="14.00" fill="#000000">name :varchar</text>
<text text-anchor="start" x="384.1824" y="-200.3" font-family="Times,serif" font-size="14.00" fill="#000000">born_date :date</text>
<text text-anchor="start" x="384.1824" y="-186.3" font-family="Times,serif" font-size="14.00" fill="#000000">active :boolean</text>
<text text-anchor="start" x="384.1824" y="-172.3" font-family="Times,serif" font-size="14.00" fill="#000000">created_at :datetime</text>
<text text-anchor="start" x="384.1824" y="-158.3" font-family="Times,serif" font-size="14.00" fill="#000000">updated_at :datetime</text>
</g>
<!-- User&#45;&gt;Book -->
<g id="edge1" class="edge">
<title>User&#45;&gt;Book</title>
<path fill="none" stroke="#373d60" d="M442.6877,-143.1524C442.6877,-137.0781 442.6877,-130.9146 442.6877,-124.8229"/>
<ellipse fill="none" stroke="#373d60" cx="442.6878" cy="-147.4134" rx="4" ry="4"/>
<polygon fill="#373d60" stroke="#373d60" points="442.6878,-124.6673 447.1877,-114.6673 442.6878,-119.6673 442.6877,-114.6673 442.6877,-114.6673 442.6877,-114.6673 442.6878,-119.6673 438.1877,-114.6674 442.6878,-124.6673 442.6878,-124.6673"/>
</g>
</g>
</svg>
